<svg width="21" height="21" viewBox="0 0 21 21" fill="none" xmlns="http://www.w3.org/2000/svg">
<path d="M13.6667 0.916748C14.173 0.916748 14.5834 1.32715 14.5834 1.83341V2.74916L19.1667 2.75008V8.25008L17.315 8.24917L19.8512 15.2124C20.0013 15.6128 20.0834 16.0464 20.0834 16.4992C20.0834 18.5242 18.4417 20.1658 16.4167 20.1658C14.7088 20.1658 13.2736 18.9981 12.866 17.4175L8.96768 17.4174C8.5604 18.9986 7.12497 20.1667 5.41671 20.1667C3.63391 20.1667 2.14829 18.8944 1.81836 17.2082C1.23265 16.9025 0.833374 16.2896 0.833374 15.5834V11.0001H9.08337C9.08337 11.4702 9.43724 11.8576 9.89314 11.9106L10 11.9167H11.8334C12.3035 11.9167 12.6909 11.5629 12.7439 11.107L12.75 11.0001V2.75008H10V0.916748H13.6667ZM5.41671 14.6667C4.40418 14.6667 3.58337 15.4876 3.58337 16.5001C3.58337 17.5126 4.40418 18.3334 5.41671 18.3334C6.42923 18.3334 7.25004 17.5126 7.25004 16.5001C7.25004 15.4876 6.42923 14.6667 5.41671 14.6667ZM16.4167 14.6667C15.4042 14.6667 14.5834 15.4876 14.5834 16.5001C14.5834 17.5126 15.4042 18.3334 16.4167 18.3334C17.4292 18.3334 18.25 17.5126 18.25 16.5001C18.25 15.4876 17.4292 14.6667 16.4167 14.6667ZM8.16671 2.75008C8.67297 2.75008 9.08337 3.16049 9.08337 3.66675V10.0834H0.833374V3.66675C0.833374 3.16049 1.24378 2.75008 1.75004 2.75008H8.16671ZM17.3334 4.58342H14.5834V6.41675H17.3334V4.58342ZM7.25004 4.58342H2.66671V5.50008H7.25004V4.58342Z" fill="#232B2F"/>
</svg>
