<svg width="20" height="20" viewBox="0 0 20 20" fill="none" xmlns="http://www.w3.org/2000/svg">
<g clip-path="url(#clip0_0_1481)">
<path d="M2.49984 8.33333H17.4998V16.67C17.4998 17.1283 17.129 17.5 16.6723 17.5H3.32734C3.21849 17.4999 3.11073 17.4783 3.01022 17.4365C2.90971 17.3948 2.81842 17.3336 2.74157 17.2565C2.66471 17.1794 2.60381 17.0879 2.56233 16.9873C2.52085 16.8867 2.49962 16.7788 2.49984 16.67V8.33333ZM7.49984 10V11.6667H12.4998V10H7.49984ZM1.6665 3.33333C1.6665 2.87333 2.04567 2.5 2.49317 2.5H17.5065C17.9632 2.5 18.3332 2.87 18.3332 3.33333V6.66667H1.6665V3.33333Z" fill="#F26110"/>
</g>
<defs>
<clipPath id="clip0_0_1481">
<rect width="20" height="20" fill="white"/>
</clipPath>
</defs>
</svg>
